<?xml version="1.0" encoding="UTF-8"?>
<svg xmlns="http://www.w3.org/2000/svg" xmlns:xlink="http://www.w3.org/1999/xlink" width="750px" height="187px" viewBox="0 0 750 187" version="1.1">
  <title>talend-seeklogo.com</title>
  <g id="talend-seeklogo.com" stroke="none" stroke-width="1" fill="none" fill-rule="evenodd">
    <path d="M685.681,166.838 C689.69,164.918 692.691,162.214 694.654,158.748 L694.654,88.781 C694.025,86.895 692.643,84.945 690.521,82.93 C688.355,80.898 685.935,79.244 683.257,77.966 C680.537,76.674 677.992,76.02 675.628,76.02 C664.128,76.02 655.935,80.3 651.044,88.841 C646.163,97.392 643.725,109.542 643.725,125.303 C643.725,154.929 653.727,169.735 673.743,169.735 C677.682,169.735 681.652,168.771 685.681,166.834 M626.457,178.428 C618.582,172.797 612.851,165.361 609.273,156.148 C605.683,146.922 603.892,136.64 603.892,125.303 C603.892,114.359 606.157,104.19 610.694,94.813 C615.228,85.44 622.013,77.897 631.076,72.184 C640.134,66.47 651.157,63.616 664.159,63.616 C670.862,63.616 676.533,64.141 681.173,65.209 C685.836,66.272 690.668,68.343 695.721,71.409 L694.654,26.379 C694.654,21.191 692.627,17.565 688.566,15.516 C684.51,13.471 678.617,12.166 670.897,11.615 C670.023,11.279 669.317,10.724 668.774,9.958 C668.3,9.247 668.064,8.236 668.064,6.892 C668.064,5.79 668.343,4.666 668.886,3.517 C669.446,2.38 670.118,1.773 670.892,1.691 C683.189,0.903 699.028,0.503 718.407,0.503 L728.219,0.503 C729.076,0.503 729.894,0.878 730.634,1.627 C731.387,2.384 731.758,3.581 731.758,5.235 L731.758,162.765 C731.758,165.917 732.413,168.301 733.709,169.912 C735.013,171.527 736.545,172.573 738.319,173.05 C740.102,173.52 742.324,173.912 744.989,174.226 C746.728,174.389 747.881,174.716 748.419,175.229 C748.979,175.742 749.255,176.87 749.255,178.596 C749.255,179.625 748.884,180.684 748.131,181.791 C747.386,182.897 746.418,183.448 745.243,183.448 L704.578,183.448 C701.582,183.448 699.437,182.992 698.141,182.092 C697.504,181.662 696.988,181.119 696.587,180.473 C696.182,179.823 695.937,179.122 695.834,178.364 C695.601,176.792 695.524,174.226 695.601,170.687 C691.821,175.888 686.262,179.883 678.935,182.677 C671.831,185.442 664.464,186.84 656.839,186.867 C644.47,186.867 634.344,184.047 626.461,178.42 M389.521,82.817 C386.757,76.717 382.348,73.664 376.286,73.664 C369.901,73.664 364.408,76.838 359.801,83.175 C355.19,89.521 352.374,99.264 351.345,112.425 L393.663,112.425 C393.663,98.799 392.281,88.923 389.521,82.817 L389.521,82.817 Z M327.467,170.691 C316.368,159.893 310.81,144.372 310.81,124.124 C310.81,111.435 313.789,100.526 319.735,91.385 C325.693,82.254 333.654,75.343 343.669,70.642 C353.666,65.962 364.657,63.615 376.639,63.615 C394.132,63.615 407.165,67.029 415.75,73.841 C424.347,80.656 429.738,90.632 431.947,103.798 C432.657,108.048 433.002,114.552 433.002,123.293 L350.996,123.418 C350.996,134.84 352.783,144.1 356.374,151.183 C359.947,158.283 364.503,163.359 370.026,166.433 C375.451,169.511 381.276,171.048 387.51,171.048 C394.765,171.048 400.84,170.092 405.765,168.207 C410.695,166.312 415.004,163.195 418.708,158.868 C418.935,158.623 419.146,158.365 419.353,158.106 C419.65,157.71 420.025,157.418 420.477,157.219 C420.908,157.06 421.346,157.017 421.79,157.094 L426.982,159.579 C427.761,159.893 428.167,160.362 428.167,160.991 C428.167,161.473 427.929,162.136 427.456,163.006 C423.198,170.411 416.981,176.245 408.784,180.49 C400.59,184.744 390.499,186.871 378.534,186.871 C355.612,186.871 338.58,181.484 327.467,170.691 L327.467,170.691 Z M443.42,181.85 C442.723,180.881 442.366,179.797 442.353,178.6 C442.353,177.261 442.628,176.245 443.183,175.535 C443.735,174.824 444.751,174.393 446.253,174.234 C454.61,173.201 458.773,170.686 458.773,166.67 L458.773,91.514 C458.773,87.889 458.106,85.13 456.771,83.235 C455.437,81.349 453.878,80.092 452.1,79.455 C450.326,78.826 448.032,78.314 445.185,77.923 C442.899,77.599 441.569,77.371 441.173,77.212 C440.299,76.872 439.588,76.321 439.046,75.554 C438.568,74.844 438.34,73.828 438.34,72.489 C438.34,71.383 438.594,70.263 439.111,69.113 C439.615,67.977 440.303,67.37 441.173,67.288 C459.609,66.186 476.266,65.626 491.163,65.626 C491.956,65.626 492.696,65.983 493.419,66.694 C494.117,67.4 494.551,68.627 494.702,70.354 L494.702,83.592 C496.514,81.47 499.903,78.805 504.876,75.614 C509.827,72.425 515.605,69.63 522.188,67.223 C528.771,64.825 535.242,63.629 541.627,63.629 C553.281,63.629 562.543,66.117 569.396,71.124 C576.238,76.127 579.682,85.366 579.682,98.842 L579.682,162.769 C579.682,167.182 580.78,170.062 582.989,171.401 C585.193,172.74 587.492,173.524 589.899,173.756 L594.682,174.239 C596.103,174.393 597.106,174.763 597.696,175.362 C598.29,175.943 598.591,177.033 598.591,178.604 C598.591,179.711 598.23,180.796 597.519,181.855 C597.205,182.372 596.788,182.767 596.257,183.051 C595.733,183.336 595.169,183.469 594.566,183.457744 L531.117,183.457744 C530.514,183.469 529.951,183.336 529.42,183.051 C528.895,182.763 528.469,182.372 528.155,181.855 C527.461,180.886 527.104,179.801 527.083,178.604 C527.083,177.183 527.333,176.141 527.797,175.474 C528.267,174.815 529.266,174.398 530.755,174.234 C533.545,173.963 536.168,173.136 538.604,171.758 C540.938,170.411 542.096,168.727 542.096,166.678 L542.096,99.424 C542.122,96.642 541.885,93.883 541.385,91.149 C540.92,88.712 539.625,86.503 537.541,84.535 C535.457,82.559 532.284,81.582 528.035,81.582 C524.017,81.582 519.897,82.344 515.678,83.881 C511.462,85.423 507.605,87.33 504.101,89.616 C500.591,91.902 497.867,94.154 495.886,96.358 L495.886,162.764 C495.886,165.921 496.459,168.305 497.599,169.912 C498.741,171.526 500.139,172.598 501.797,173.106 C503.446,173.619 505.582,173.989 508.182,174.234 C509.918,174.389 511.058,174.716 511.596,175.229 C512.156,175.75 512.436,176.874 512.436,178.6 C512.436,179.629 512.061,180.692 511.308,181.791 C510.563,182.901 509.603,183.452 508.406,183.452 L446.378,183.452 C445.775,183.465 445.215,183.332 444.686,183.051 C444.157,182.763 443.739,182.367 443.429,181.85 L443.42,181.85 Z M170.036,160.289 C165.153,166.273 158.82,169.27 151.023,169.27 C146.137,169.27 142.335,167.729 139.606,164.659 C136.897,161.581 135.528,157.925 135.528,153.668 C135.528,146.025 137.199,140.037 140.501,135.701 C143.807,131.37 147.889,128.299 152.724,126.483 C157.576,124.674 163.345,123.262 170.036,122.238 L170.036,160.289 Z M45.947,32.307 C45.947,32.307 47.678,29.091 50.631,30.012 C52.246,30.667 53.146,31.635 53.146,33.017 L53.146,33.017 L53.146,65.975 L79.266,65.975 C80.179,66.057 80.868,66.492 81.329,67.28 C81.858,68.107 82.112,69.01 82.099,69.988 C82.099,72.433 81.729,74.483 80.976,76.14 C80.231,77.798 79.43,78.625 78.547,78.625 L78.547,78.625 L53.146,78.625 L53.146,146.577 C53.146,153.271 53.473,158.374 54.148,161.879 C54.82,165.382 55.922,167.79 57.464,169.09 C58.997,170.394 61.214,171.045 64.137,171.045 C66.738,171.045 69.807,170.523 73.355,169.495 C76.894,168.478 80.17,167.221 83.163,165.718 C83.645,165.482 84.308,165.96 85.169,167.139 C86.034,168.315 86.71,169.593 87.188,170.975 L87.188,170.975 C87.658,172.362 87.658,173.21 87.192,173.524 C85.216,175.651 82.168,177.76 78.026,179.844 C73.885,181.937 69.472,183.642 64.792,184.994 C60.094,186.32 55.987,187.001 52.439,187.001 C41.099,187.001 32.044,184.792 25.324,180.387 C18.586,175.962 15.206,168.207 15.206,157.103 L15.206,157.103 L15.206,78.857 L2.565,78.857 C1.773,78.788 1.11,78.177 0.559,77.036 C0.378,76.67 0.284,76.317 0.172,75.964 C-0.861,71.84 3.104,70.901 3.104,70.901 C7.848,69.411 12.382,67.43 16.7,64.964 C21.023,62.497 25.031,59.599 28.725,56.267 C32.423,52.939 35.722,49.258 38.627,45.215 C41.529,41.176 43.971,36.875 45.947,32.307 Z M284.314,0.511 C285.167,0.511 285.981,0.882 286.734,1.635 C287.474,2.384 287.849,3.585 287.849,5.234 L287.849,5.234 L287.849,163.944 C287.849,166.709 288.581,168.814 290.041,170.273 C291.435,171.712 293.106,172.659 295.056,173.106 C297.441,173.619 299.844,173.993 302.272,174.234 C303.999,174.389 305.139,174.716 305.703,175.237 L305.703,175.237 C306.25,175.75 306.526,176.874 306.526,178.604 C306.526,179.702 306.169,180.783 305.458,181.855 C305.144,182.372 304.722,182.763 304.192,183.051 C303.663,183.336 303.099,183.469 302.5,183.457 L302.5,183.457 L212.376668,183.457625 C209.927503,183.474999 202.456299,183.85013 194.987966,183.986603 L193.921624,184.004412 C186.46496,184.116804 179.250448,183.962138 177.303,182.944 C173.273,180.843 172.809,177.424 172.809,177.424 C172.809,177.424 172.288,173.24 172.288,170.562 L172.288,170.562 L172.288,170.209 C167.254,175.492 161.154,179.491 154.033,182.208 C146.898,184.924 139.127,186.29 130.689,186.29 C125.415,186.29 120.05,185.178 114.612,182.983 C111.913,181.889 109.407,180.46 107.091,178.695 C104.774,176.933 102.734,174.893 100.964,172.577 C97.305,167.853 95.471,161.938 95.471,154.842 C95.471,145.16 99.19,137.393 106.648,131.572 C114.091,125.743 123.146,121.506 133.819,118.867 C144.496,116.218 156.564,114.195 170.036,112.774 L170.036,112.774 L170.036,93.276 C170.036,86.266 168.568,81.448 165.606,78.805 C162.652,76.166 158.261,74.844 152.436,74.844 C145.995,74.844 141.414,75.679 139.347,76.699 C138.83,76.885 138.361,77.04 137.806,77.277 C125.751,82.512 120.976,92.587 121.781,102.196 C121.781,102.428 121.759,102.588 121.794,102.92 C122.233,107.531 118.565,108.353 115.064,107.849 C111.732,107.165 108.826,105.835 106.406,103.738 C102.82,100.629 101.024,96.629 101.024,91.743 C101.024,85.444 104.051,80.178 110.066,75.964 C116.098,71.757 123.456,68.644 132.17,66.629 C140.876,64.627 149.327,63.615 157.511,63.615 C169.179,63.615 178.823,65.019 186.465,67.809 C194.107,70.608 199.752,74.478 203.368,79.399 C206.993,84.32 208.806,90.007 208.806,96.466 L208.806,96.466 L208.806,160.052 C208.806,163.127 209.245,165.697 210.102,167.789 C210.972,169.885 221.528,172.706 230.075,172.706 C238.643,172.706 251.572,169.821 251.572,167.853 L251.572,167.853 L251.696,26.511 C251.696,22.809 250.943,20.006 249.44,18.12 C247.955,16.234 246.186,14.973 244.123,14.336 C242.078,13.703 239.439,13.203 236.21,12.803 C233.528,12.402 232.034,12.17 231.719,12.093 C230.841,11.761 230.135,11.206 229.601,10.435 C229.115,9.725 228.878,8.704 228.878,7.37 C228.878,6.259 229.153,5.135 229.709,3.999 C230.269,2.858 230.932,2.246 231.719,2.169 C248.73,1.058 266.262,0.511 284.314,0.511 Z" id="Fill-2" fill="#FF6C71"></path>
  </g>
</svg>
